<?xml version="1.0" standalone="no"?>
<!DOCTYPE svg PUBLIC "-//W3C//DTD SVG 20010904//EN"
 "http://www.w3.org/TR/2001/REC-SVG-20010904/DTD/svg10.dtd">
<svg version="1.0" xmlns="http://www.w3.org/2000/svg"
 width="1280.000000pt" height="720.000000pt" viewBox="0 0 1280.000000 720.000000"
 preserveAspectRatio="xMidYMid meet">

<g transform="translate(0.000000,720.000000) scale(0.100000,-0.100000)"
fill="#000000" stroke="none">
<path d="M6660 5594 c-14 -2 -59 -9 -100 -15 -101 -15 -243 -61 -366 -119
-294 -138 -443 -300 -479 -517 -10 -62 -57 -120 -118 -148 -46 -21 -91 -31
-236 -52 -49 -7 -88 -50 -96 -107 -7 -42 -3 -66 21 -145 7 -23 6 -24 -40 -17
-25 4 -55 5 -66 1 -28 -9 -43 -67 -36 -136 6 -54 5 -59 -16 -70 -63 -32 -108
-96 -108 -154 0 -31 4 -37 38 -52 20 -10 38 -18 40 -19 1 0 -8 -25 -22 -55
-30 -70 -47 -172 -37 -224 26 -128 79 -163 323 -215 329 -69 430 -134 476
-305 16 -62 24 -73 241 -315 123 -138 228 -249 235 -247 20 6 85 154 110 250
92 352 37 701 -188 1196 -105 231 -142 397 -133 604 5 121 40 307 58 307 5 0
9 -41 9 -91 0 -262 97 -576 302 -981 115 -228 392 -687 406 -673 2 2 -7 59
-21 127 -31 147 -60 330 -83 528 -26 213 -26 681 -1 845 46 293 124 505 243
651 24 29 44 56 44 59 0 14 -85 58 -137 71 -61 14 -220 26 -263 18z"/>
<path d="M5549 3067 c-150 -188 -612 -768 -914 -1147 -94 -118 -296 -372 -449
-563 -153 -192 -276 -350 -274 -351 1 -2 212 170 468 381 256 210 570 470 699
576 128 105 319 263 424 349 165 136 193 156 206 144 34 -28 529 -435 610
-501 47 -38 138 -112 201 -165 63 -52 128 -106 146 -120 36 -29 681 -560 763
-629 30 -25 50 -38 45 -29 -5 9 -165 212 -355 450 -190 238 -444 557 -564 708
-271 341 -365 459 -387 485 -27 33 -307 386 -392 494 -44 56 -80 101 -80 101
-1 0 -67 -82 -147 -183z"/>
<path d="M6883 3198 c-23 -29 -50 -64 -61 -78 -12 -14 -114 -141 -227 -283
-187 -234 -205 -260 -193 -278 37 -54 244 -308 251 -309 4 0 47 33 95 73 48
40 108 90 133 110 l46 37 135 -113 c75 -61 166 -137 203 -167 38 -30 136 -111
219 -180 169 -141 1000 -825 1137 -937 49 -40 89 -71 89 -68 0 4 -185 238
-1044 1315 -199 250 -442 556 -540 680 -98 124 -184 231 -191 238 -9 11 -20 3
-52 -40z"/>
<path d="M4166 2601 c-11 -14 -79 -100 -151 -191 -153 -192 -739 -928 -963
-1208 -85 -106 -152 -195 -151 -196 2 -2 110 84 239 191 472 391 1042 858
1049 861 3 1 56 -39 115 -88 88 -73 112 -88 121 -78 69 76 175 220 169 231
-12 19 -395 496 -402 501 -4 2 -16 -8 -26 -23z"/>
<path d="M8235 2389 c-104 -132 -196 -249 -204 -259 -12 -18 -5 -29 69 -122
46 -57 88 -109 95 -116 10 -11 32 3 121 77 60 50 111 91 114 91 3 0 106 -84
230 -186 124 -102 294 -243 379 -312 178 -147 432 -357 578 -478 56 -46 104
-84 107 -84 3 0 -131 170 -296 377 -350 439 -620 777 -841 1056 -87 108 -159
197 -160 197 -1 -1 -87 -109 -192 -241z"/>
</g>
</svg>
